<mxfile host="app.diagrams.net" modified="2023-12-15T09:28:49.018Z" agent="Mozilla/5.0 (Macintosh; Intel Mac OS X 10_15_7) AppleWebKit/537.36 (KHTML, like Gecko) Chrome/120.0.0.0 Safari/537.36" version="22.1.9" etag="nn0HxTiD36lqTSNc4VHA" type="github">
  <diagram name="Trang-1" id="qNsiY7ixLOTuz3A9OR16">
    <mxGraphModel>
      <root>
        <mxCell id="0" />
        <mxCell id="1" parent="0" />
      </root>
    </mxGraphModel>
  </diagram>
</mxfile>
